<?xml version="1.0" encoding="utf-8"?>
<svg xmlns="http://www.w3.org/2000/svg" width="24" height="24" viewBox="0 0 24 24" fill="none">
<path d="M11.9313 17.2056C10.5251 19.4434 8.65915 20.9239 6.86084 19.3419C5.4614 18.1115 6.34703 16.32 7.57746 14.9205C7.85872 14.6081 8.16883 14.3229 8.50365 14.0687C8.94493 13.7411 9.4865 13.5773 10.0354 13.6054C10.5843 13.6335 11.1063 13.8519 11.5117 14.223C11.9172 14.594 12.1808 15.0947 12.2574 15.6389C12.3339 16.1832 12.2186 16.7371 11.9313 17.2056Z" fill="url(#paint0_linear_2660_1607)"/>
<path opacity="0.85" d="M9.03095 10.9859L11.6608 5.78705L10.3087 5.88846C5.30588 6.4631 4.77179 12.4259 4.77179 12.4259C4.65687 13.0073 5.10982 13.2913 5.52222 13.0479C6.09264 12.5216 6.70291 12.0401 7.34757 11.6079C7.85633 11.2797 8.43102 11.0674 9.03095 10.9859V10.9859Z" fill="#A9E3E3"/>
<path opacity="0.85" d="M14.7234 15.387L19.0975 11.5335L19.3341 12.8451C20.044 17.8276 14.4057 19.849 14.4057 19.849C13.8716 20.1059 13.4862 19.7476 13.6147 19.2811C13.9817 18.5995 14.2937 17.8896 14.5477 17.1583C14.7343 16.5877 14.7943 15.9832 14.7234 15.387V15.387Z" fill="#A9E3E3"/>
<path d="M12.533 16.3403C12.6618 16.4459 12.8187 16.5117 12.9844 16.5297C13.15 16.5477 13.3173 16.5171 13.4659 16.4417C16.16 15 18.5335 13.0267 20.4428 10.6411C21.4773 9.35552 22.2004 7.84812 22.5558 6.23672C22.9111 4.62531 22.8891 2.95357 22.4913 1.35211C22.388 0.967243 22.1616 0.626747 21.8466 0.382606C21.5317 0.138464 21.1455 0.00409103 20.747 0C19.0966 0.0206407 17.4733 0.422519 16.0038 1.17425C14.5344 1.92598 13.2586 3.00722 12.2761 4.33352C10.4454 6.78048 9.13411 9.57567 8.42253 12.5476C8.38979 12.7104 8.40349 12.8792 8.46207 13.0346C8.52064 13.19 8.62173 13.3258 8.7538 13.4265L12.533 16.3403Z" fill="url(#paint1_linear_2660_1607)" fill-opacity="0.95"/>
<path opacity="0.9" d="M13.2065 15.7874C13.1685 15.7691 13.1364 15.7406 13.114 15.7054C13.0976 15.6801 13.0863 15.652 13.081 15.6226C13.0756 15.5933 13.0761 15.5634 13.0826 15.5345C13.0891 15.5057 13.1014 15.4786 13.1187 15.4547C13.136 15.4308 13.1581 15.4106 13.1836 15.3954C16.6713 13.311 19.4815 10.3065 21.3043 6.71317C21.3311 6.66039 21.3784 6.62074 21.4358 6.60294C21.4932 6.58514 21.556 6.59065 21.6104 6.61825C21.6648 6.64586 21.7063 6.6933 21.7258 6.75014C21.7454 6.80698 21.7413 6.86857 21.7145 6.92135C19.854 10.5876 16.9861 13.6529 13.4272 15.7793C13.3951 15.8002 13.3576 15.812 13.3187 15.8134C13.2798 15.8148 13.241 15.8058 13.2065 15.7874V15.7874Z" fill="white"/>
<path d="M15.8659 8.11266C15.4765 7.81613 15.1865 7.40823 15.0344 6.94308C14.8796 6.48085 14.8653 5.98315 14.9931 5.51277C15.1209 5.04238 15.3852 4.62039 15.7525 4.30003C16.1199 3.97966 16.5739 3.77527 17.0573 3.71265C17.5407 3.65003 18.0318 3.73197 18.4687 3.94815C18.7958 4.11018 19.0829 4.34275 19.3093 4.62912C19.5356 4.91548 19.6956 5.2485 19.7778 5.60417C19.8599 5.95983 19.8621 6.32929 19.7842 6.68591C19.7063 7.04253 19.5503 7.37743 19.3273 7.66646C19.1293 7.92306 18.8828 8.13816 18.6017 8.29946C18.3206 8.46076 18.0105 8.5651 17.689 8.60654C17.3676 8.64797 17.0412 8.62568 16.7283 8.54094C16.4155 8.4562 16.1225 8.31067 15.8659 8.11266V8.11266ZM18.3267 4.93519C18.0815 4.74794 17.7866 4.63716 17.4787 4.61672C17.1709 4.59628 16.8638 4.66708 16.596 4.82026C16.3269 4.97279 16.1097 5.20244 15.9723 5.47959C15.835 5.75673 15.7838 6.06868 15.8253 6.37519C15.865 6.6804 15.994 6.96707 16.1961 7.19921C16.3981 7.43135 16.6643 7.59861 16.9611 7.67998C17.2595 7.7597 17.5747 7.75033 17.8678 7.65302C18.161 7.55571 18.4192 7.37472 18.6107 7.13238C18.8553 6.79998 18.9597 6.38488 18.9014 5.97632C18.8512 5.56819 18.6453 5.19522 18.3267 4.93519V4.93519Z" fill="url(#paint2_linear_2660_1607)"/>
<path opacity="0.9" d="M17.3397 7.87607C17.6823 7.87741 18.0175 7.77704 18.303 7.58768C18.5885 7.39833 18.8114 7.1285 18.9434 6.81237C19.0755 6.49625 19.1107 6.14805 19.0447 5.81188C18.9787 5.47572 18.8144 5.1667 18.5726 4.92398C18.3308 4.68126 18.0225 4.51576 17.6866 4.44843C17.3507 4.3811 17.0023 4.41497 16.6857 4.54577C16.369 4.67656 16.0983 4.89838 15.9079 5.18314C15.7174 5.4679 15.6157 5.80278 15.6157 6.14536C15.6157 6.60321 15.7971 7.0424 16.1202 7.36677C16.4434 7.69115 16.8818 7.87428 17.3397 7.87607V7.87607Z" fill="url(#paint3_linear_2660_1607)"/>
<path d="M17.3496 5.67845C17.5426 5.67845 17.6991 5.52657 17.6991 5.33922C17.6991 5.15188 17.5426 5 17.3496 5C17.1565 5 17 5.15188 17 5.33922C17 5.52657 17.1565 5.67845 17.3496 5.67845Z" fill="white"/>
<path d="M4.92733 19.6462C6.36856 19.6462 7.5369 18.4779 7.5369 17.0366C7.5369 15.5954 6.36856 14.4271 4.92733 14.4271C3.4861 14.4271 2.31775 15.5954 2.31775 17.0366C2.31775 18.4779 3.4861 19.6462 4.92733 19.6462Z" fill="url(#paint4_linear_2660_1607)"/>
<path d="M3.73746 20.4439C4.69704 20.4439 5.47493 19.666 5.47493 18.7065C5.47493 17.7469 4.69704 16.969 3.73746 16.969C2.77789 16.969 2 17.7469 2 18.7065C2 19.666 2.77789 20.4439 3.73746 20.4439Z" fill="url(#paint5_linear_2660_1607)"/>
<path d="M8 24C9.65685 24 11 22.6569 11 21C11 19.3431 9.65685 18 8 18C6.34315 18 5 19.3431 5 21C5 22.6569 6.34315 24 8 24Z" fill="url(#paint6_linear_2660_1607)"/>
<path d="M4.6163 23.4727C5.73643 23.4727 6.64447 22.5646 6.64447 21.4445C6.64447 20.3244 5.73643 19.4163 4.6163 19.4163C3.49618 19.4163 2.58813 20.3244 2.58813 21.4445C2.58813 22.5646 3.49618 23.4727 4.6163 23.4727Z" fill="url(#paint7_linear_2660_1607)"/>
<path opacity="0.8" d="M6.33353 20.4777C7.29311 20.4777 8.071 19.6998 8.071 18.7403C8.071 17.7807 7.29311 17.0028 6.33353 17.0028C5.37396 17.0028 4.59607 17.7807 4.59607 18.7403C4.59607 19.6998 5.37396 20.4777 6.33353 20.4777Z" fill="url(#paint8_linear_2660_1607)"/>
<path opacity="0.8" d="M8.11826 22.7763C8.76047 22.7763 9.28108 22.2557 9.28108 21.6135C9.28108 20.9713 8.76047 20.4507 8.11826 20.4507C7.47606 20.4507 6.95544 20.9713 6.95544 21.6135C6.95544 22.2557 7.47606 22.7763 8.11826 22.7763Z" fill="url(#paint9_linear_2660_1607)"/>
<defs>
<linearGradient id="paint0_linear_2660_1607" x1="8.17894" y1="19.76" x2="10.0949" y2="14.5342" gradientUnits="userSpaceOnUse">
<stop stop-color="#C3C3FA"/>
<stop offset="1" stop-color="white"/>
</linearGradient>
<linearGradient id="paint1_linear_2660_1607" x1="7.7262" y1="9.39042" x2="22.7144" y2="7.51099" gradientUnits="userSpaceOnUse">
<stop stop-color="#F06983"/>
<stop offset="0.22" stop-color="#F3798F"/>
<stop offset="0.46" stop-color="#F58697"/>
<stop offset="0.72" stop-color="#F79CA5"/>
<stop offset="0.98" stop-color="#FABCB9"/>
<stop offset="1" stop-color="#FABEBA"/>
</linearGradient>
<linearGradient id="paint2_linear_2660_1607" x1="18.009" y1="8.55886" x2="16.7245" y2="3.74533" gradientUnits="userSpaceOnUse">
<stop stop-color="#6363DB"/>
<stop offset="1" stop-color="#9292F5"/>
</linearGradient>
<linearGradient id="paint3_linear_2660_1607" x1="17.5628" y1="7.86255" x2="17.1233" y2="4.42818" gradientUnits="userSpaceOnUse">
<stop stop-color="#6BC7FF"/>
<stop offset="1" stop-color="#C9E9FC"/>
</linearGradient>
<linearGradient id="paint4_linear_2660_1607" x1="3.23205" y1="17.5009" x2="7.0137" y2="16.5125" gradientUnits="userSpaceOnUse">
<stop stop-color="#C3C3FA"/>
<stop offset="1" stop-color="white"/>
</linearGradient>
<linearGradient id="paint5_linear_2660_1607" x1="4.44726" y1="19.2778" x2="2.90963" y2="17.8274" gradientUnits="userSpaceOnUse">
<stop stop-color="#C3C3FA"/>
<stop offset="1" stop-color="white"/>
</linearGradient>
<linearGradient id="paint6_linear_2660_1607" x1="7.80608" y1="23.7771" x2="8.41608" y2="18.0041" gradientUnits="userSpaceOnUse">
<stop stop-color="#C3C3FA"/>
<stop offset="1" stop-color="white"/>
</linearGradient>
<linearGradient id="paint7_linear_2660_1607" x1="3.03568" y1="22.4208" x2="6.30861" y2="20.5138" gradientUnits="userSpaceOnUse">
<stop stop-color="#C3C3FA"/>
<stop offset="1" stop-color="white"/>
</linearGradient>
<linearGradient id="paint8_linear_2660_1607" x1="5.77065" y1="20.0319" x2="7.2385" y2="17.192" gradientUnits="userSpaceOnUse">
<stop stop-color="#C3C3FA"/>
<stop offset="0.48" stop-color="white"/>
<stop offset="1" stop-color="white"/>
</linearGradient>
<linearGradient id="paint9_linear_2660_1607" x1="7.23466" y1="21.9302" x2="9.18778" y2="21.3081" gradientUnits="userSpaceOnUse">
<stop stop-color="#C3C3FA"/>
<stop offset="1" stop-color="white"/>
</linearGradient>
</defs>
</svg>