<?xml version="1.0" encoding="UTF-8"?>
<svg id="Layer_1" data-name="Layer 1" xmlns="http://www.w3.org/2000/svg" viewBox="0 0 450.3 149.38">
  <defs>
    <style>
      .cls-1 {
        fill: #ffb002;
      }

      .cls-2 {
        fill: #57cc05;
      }
    </style>
  </defs>
  <g>
    <path class="cls-1" d="M282.03,128.67l-1.04,7.12c-.63,4.68-2.17,8.08-4.6,10.2-2.44,2.12-6,3.18-10.68,3.18h-35.79l9.3-66.45h35.79c4.68,0,7.96,1.06,9.83,3.18,1.87,2.12,2.45,5.52,1.76,10.2l-.95,7.12c-.63,4.18-1.91,7.26-3.84,9.26-1.93,1.99-4.73,3.15-8.4,3.46,3.61.32,6.09,1.47,7.45,3.47,1.36,1.99,1.76,5.08,1.19,9.26ZM251.66,123.83l-1.33,9.49h10.06c1.84,0,2.88-.95,3.13-2.85l.57-3.8c.13-1.01.02-1.74-.33-2.18-.35-.44-1.03-.66-2.04-.66h-10.06ZM263.9,108.07c1.83,0,2.91-.95,3.23-2.85l.47-3.8c.13-1.01.02-1.74-.33-2.18-.35-.44-1.03-.66-2.04-.66h-10.06l-1.33,9.49h10.06Z"/>
    <path class="cls-1" d="M285.16,149.17l9.3-66.45h46.89l-2.28,15.85h-28.67l-1.33,9.49h20.12l-2.18,15.76h-20.12l-1.33,9.49h28.67l-2.18,15.85h-46.89Z"/>
    <path class="cls-1" d="M392.91,82.72l-2.28,15.85h-15.57l-7.13,50.6h-18.12l7.13-50.6h-15.66l2.28-15.85h49.35Z"/>
    <path class="cls-1" d="M403.63,123.83c-4.75,0-8.1-1.14-10.06-3.42-1.96-2.28-2.6-5.76-1.9-10.44l1.8-13.38c1.33-9.24,6.68-13.86,16.04-13.86h30.66l-2.28,15.85h-23.73c-1.84,0-2.88.95-3.13,2.85l-.48,3.8c-.19,1.01-.11,1.74.24,2.18.35.44,1.03.66,2.04.66h12.06c9.43,0,13.48,4.62,12.15,13.86l-1.9,13.38c-.7,4.68-2.33,8.16-4.89,10.44-2.56,2.28-6.22,3.42-10.96,3.42h-33.6l2.18-15.85h26.58c1.83,0,2.88-.95,3.13-2.85l.57-3.8c.13-1.01.01-1.74-.33-2.18-.35-.44-1.03-.66-2.04-.66h-12.15Z"/>
  </g>
  <g>
    <path class="cls-2" d="M276.28,74.69l3.77-26.62h-15.43l-3.77,26.62h-19.1l9.92-70.05h19.1l-3.78,26.72h15.43l3.78-26.72h19.1l-9.92,70.05h-19.1Z"/>
    <path class="cls-2" d="M354.82,74.69h-19.1l3.7-26.72h-13.63l-3.7,26.72h-19.1l7.69-55.44c1.4-9.74,6.99-14.61,16.78-14.61h22.47c4.99,0,8.52,1.2,10.59,3.6,2.06,2.4,2.73,6.06,2,10.99l-7.69,55.46ZM340.17,21.35h-7.77c-1.95,0-3.06.99-3.33,2.98l-.97,7.03h13.63l.97-7.01c.13-1.06.01-1.83-.35-2.3-.37-.47-1.09-.7-2.17-.7Z"/>
    <path class="cls-2" d="M424.19,4.64l-2.88,20.31c-1.22,9.08-6.01,13.98-14.38,14.71,8.09.67,11.5,5.57,10.21,14.71l-2.88,20.31h-19.1l3.26-22.99c.27-2.49-.81-3.73-3.22-3.73h-9.87l-3.79,26.72h-19.1l9.92-70.05h19.1l-3.78,26.72h9.83c2.47,0,3.91-1.21,4.31-3.63l3.27-23.09h19.1Z"/>
    <path class="cls-2" d="M421.28,74.69l9.92-70.05h19.1l-9.92,70.05h-19.1Z"/>
  </g>
  <path class="cls-2" d="M207.19,4.28l-21.32,140.24c-.42,2.79-2.83,4.86-5.65,4.86h-62.18c-1.74,0-3.38-.79-4.46-2.14L.87,6.37C-1.19,3.81.64,0,3.93,0h29.09c1.2,0,2.34.55,3.08,1.49l53.16,67.31c12.34,15.62,33.51,21.23,51.97,13.77,7.06-2.85,13.17-7.42,17.87-13.13s7.96-12.6,9.4-20.09l8.77-46.33C177.59,1.27,179.13,0,180.92,0h22.59c2.28,0,4.02,2.03,3.68,4.28Z"/>
  <circle class="cls-1" cx="123.51" cy="34.99" r="27.44"/>
</svg>